<?xml version="1.0" ?>
<svg xmlns="http://www.w3.org/2000/svg" xmlns:dc="http://purl.org/dc/elements/1.1/" xmlns:cc="http://creativecommons.org/ns#" xmlns:rdf="http://www.w3.org/1999/02/22-rdf-syntax-ns#" xmlns:svg="http://www.w3.org/2000/svg" viewBox="0.000000 0.000000 1000.000000 1000.000000" id="Graph" version="1.1">
  <defs></defs>
  <g id="graph-misc">
    <g id="graph-background">
      <path style="fill:#ffffff;fill-opacity:1.000000;fill-rule:nonzero;" d=" M 0.000000 0.000000 L 1000.000000 0.000000 L 1000.000000 1000.000000 L 0.000000 1000.000000 Z"></path></g></g>
  <g id="elements">
    <g id="graph-background">
      <path style="fill:#ffffff;fill-opacity:1.000000;fill-rule:nonzero;" d=" M 0.000000 0.000000 L 1000.000000 0.000000 L 1000.000000 1000.000000 L 0.000000 1000.000000 Z"></path></g>
    <g id="egde-0-1">
      <path style="fill:#000000;fill-opacity:1.000000;stroke:#000000;stroke-width:1.000000px;" d=" M 736.287073 707.516048 L 1120.140949 704.084664 M 1107.123590 702.200950 L 1107.159346 706.200791 L 1115.141149 704.129359 Z"></path></g>
    <g id="egde-0-5">
      <path style="fill:#000000;fill-opacity:1.000000;stroke:#000000;stroke-width:1.000000px;" d=" M 587.652426 762.324596 L 391.274345 1067.472653 M 396.627727 1055.458440 L 399.991380 1057.623120 L 393.980194 1063.268086 Z"></path></g>
    <g id="egde-9-8">
      <path style="fill:#000000;fill-opacity:1.000000;stroke:#000000;stroke-width:1.000000px;" d=" M 1122.137254 448.380413 L 659.056440 258.103834 M 670.320823 264.894539 L 671.841063 261.194692 L 663.681249 260.004134 Z"></path></g>
    <g id="egde-3-4">
      <path style="fill:#000000;fill-opacity:1.000000;stroke:#000000;stroke-width:1.000000px;" d=" M 1094.074122 602.322573 L 108.904795 1034.285151 M 120.007495 1027.233197 L 121.613738 1030.896527 L 113.483957 1032.277348 Z"></path></g>
    <g id="egde-3-9">
      <path style="fill:#000000;fill-opacity:1.000000;stroke:#000000;stroke-width:1.000000px;" d=" M 884.386833 139.095376 L 185.571063 -0.203300 M 197.929260 4.299473 L 198.711218 0.376649 L 190.474592 0.774146 Z"></path></g>
    <g id="egde-4-0">
      <path style="fill:#000000;fill-opacity:1.000000;stroke:#000000;stroke-width:1.000000px;" d=" M 198.590691 230.747721 L 544.575646 616.985950 M 534.411988 608.637294 L 537.391407 605.968387 L 541.239512 613.261677 Z"></path></g>
    <g id="egde-7-8">
      <path style="fill:#000000;fill-opacity:1.000000;stroke:#000000;stroke-width:1.000000px;" d=" M -3.325769 819.964562 L 290.292354 416.817928 M 281.022284 426.148834 L 284.255623 428.503726 L 287.348738 420.859602 Z"></path></g>
    <g id="egde-9-3">
      <path style="fill:#000000;fill-opacity:1.000000;stroke:#000000;stroke-width:1.000000px;" d=" M 421.233897 54.155957 L 767.898302 451.502787 M 757.844853 443.021741 L 760.858968 440.392082 L 764.611228 447.735143 Z"></path></g>
    <g id="egde-8-3">
      <path style="fill:#000000;fill-opacity:1.000000;stroke:#000000;stroke-width:1.000000px;" d=" M 862.354550 318.058667 L 946.523390 366.960934 M 934.278144 362.159482 L 936.287609 358.700862 L 942.200116 364.449102 Z"></path></g>
    <g id="egde-2-3">
      <path style="fill:#000000;fill-opacity:1.000000;stroke:#000000;stroke-width:1.000000px;" d=" M 766.038066 831.166507 L 528.059417 846.581064 M 540.902957 843.744960 L 541.161506 847.736595 L 533.048961 846.257877 Z"></path></g>
    <g id="egde-3-7">
      <path style="fill:#000000;fill-opacity:1.000000;stroke:#000000;stroke-width:1.000000px;" d=" M 380.496717 777.346701 L 973.212347 193.401122 M 962.548068 201.100028 L 965.355336 203.949457 L 969.650561 196.910207 Z"></path></g>
    <g id="egde-6-3">
      <path style="fill:#000000;fill-opacity:1.000000;stroke:#000000;stroke-width:1.000000px;" d=" M 103.497059 437.716335 L 329.974988 259.128680 M 318.528506 265.607727 L 321.005283 268.748679 L 326.048798 262.224650 Z"></path></g>
    <g id="egde-1-2">
      <path style="fill:#000000;fill-opacity:1.000000;stroke:#000000;stroke-width:1.000000px;" d=" M 63.087827 641.109911 L 222.980750 183.331702 M 216.805924 194.945121 L 220.582204 196.264102 L 221.332025 188.052052 Z"></path></g>
    <g id="egde-5-6">
      <path style="fill:#000000;fill-opacity:1.000000;stroke:#000000;stroke-width:1.000000px;" d=" M 1105.085372 560.583901 L 629.242411 234.923874 M 638.840966 243.916524 L 641.100095 240.615564 L 633.368610 237.747786 Z"></path></g>
    <g id="node-5">
      <path style="fill:#000000;fill-opacity:1.000000;fill-rule:nonzero;" transform="translate(1009.425752,67.397480)" d=" m -5.000000 0 a 5.000000,5.000000 0 1 0 10.000000,0 5.000000,5.000000 0 1 0 -10.000000,0 z"></path></g>
    <g id="node-1">
      <path style="fill:#000000;fill-opacity:1.000000;fill-rule:nonzero;" transform="translate(241.669077,767.098851)" d=" m -5.000000 0 a 5.000000,5.000000 0 1 0 10.000000,0 5.000000,5.000000 0 1 0 -10.000000,0 z"></path></g>
    <g id="node-2">
      <path style="fill:#000000;fill-opacity:1.000000;fill-rule:nonzero;" transform="translate(155.868684,1008.256389)" d=" m -5.000000 0 a 5.000000,5.000000 0 1 0 10.000000,0 5.000000,5.000000 0 1 0 -10.000000,0 z"></path></g>
    <g id="node-3">
      <path style="fill:#000000;fill-opacity:1.000000;fill-rule:nonzero;" transform="translate(655.597004,92.256956)" d=" m -5.000000 0 a 5.000000,5.000000 0 1 0 10.000000,0 5.000000,5.000000 0 1 0 -10.000000,0 z"></path></g>
    <g id="node-4">
      <path style="fill:#000000;fill-opacity:1.000000;fill-rule:nonzero;" transform="translate(485.816826,69.459504)" d=" m -5.000000 0 a 5.000000,5.000000 0 1 0 10.000000,0 5.000000,5.000000 0 1 0 -10.000000,0 z"></path></g>
    <g id="node-8">
      <path style="fill:#000000;fill-opacity:1.000000;fill-rule:nonzero;" transform="translate(589.252375,137.277107)" d=" m -5.000000 0 a 5.000000,5.000000 0 1 0 10.000000,0 5.000000,5.000000 0 1 0 -10.000000,0 z"></path></g>
    <g id="node-9">
      <path style="fill:#000000;fill-opacity:1.000000;fill-rule:nonzero;" transform="translate(922.828541,55.343166)" d=" m -5.000000 0 a 5.000000,5.000000 0 1 0 10.000000,0 5.000000,5.000000 0 1 0 -10.000000,0 z"></path></g>
    <g id="node-0">
      <path style="fill:#000000;fill-opacity:1.000000;fill-rule:nonzero;" transform="translate(1127.455087,453.701632)" d=" m -5.000000 0 a 5.000000,5.000000 0 1 0 10.000000,0 5.000000,5.000000 0 1 0 -10.000000,0 z"></path></g>
    <g id="node-6">
      <path style="fill:#000000;fill-opacity:1.000000;fill-rule:nonzero;" transform="translate(218.989387,476.832887)" d=" m -5.000000 0 a 5.000000,5.000000 0 1 0 10.000000,0 5.000000,5.000000 0 1 0 -10.000000,0 z"></path></g>
    <g id="node-7">
      <path style="fill:#000000;fill-opacity:1.000000;fill-rule:nonzero;" transform="translate(1002.707551,-28.142013)" d=" m -5.000000 0 a 5.000000,5.000000 0 1 0 10.000000,0 5.000000,5.000000 0 1 0 -10.000000,0 z"></path></g></g></svg>